<?xml version="1.0" encoding="utf-8" standalone="no"?>
<!DOCTYPE svg PUBLIC "-//W3C//DTD SVG 1.1//EN"
  "http://www.w3.org/Graphics/SVG/1.1/DTD/svg11.dtd">
<!-- Created with matplotlib (https://matplotlib.org/) -->
<svg height="568.474375pt" version="1.1" viewBox="0 0 549.201875 568.474375" width="549.201875pt" xmlns="http://www.w3.org/2000/svg" xmlns:xlink="http://www.w3.org/1999/xlink">
 <defs>
  <style type="text/css">
*{stroke-linecap:butt;stroke-linejoin:round;}
  </style>
 </defs>
 <g id="figure_1">
  <g id="patch_1">
   <path d="M 0 568.474375 
L 549.201875 568.474375 
L 549.201875 0 
L 0 0 
z
" style="fill:#ffffff;"/>
  </g>
  <g id="axes_1">
   <g id="patch_2">
    <path d="M 43.78125 530.918125 
L 527.82625 530.918125 
L 527.82625 22.318125 
L 43.78125 22.318125 
z
" style="fill:#ffffff;"/>
   </g>
   <g id="matplotlib.axis_1">
    <g id="xtick_1">
     <g id="line2d_1">
      <defs>
       <path d="M 0 0 
L 0 3.5 
" id="m2dd67c30fd" style="stroke:#000000;stroke-width:0.8;"/>
      </defs>
      <g>
       <use style="stroke:#000000;stroke-width:0.8;" x="65.783295" xlink:href="#m2dd67c30fd" y="530.918125"/>
      </g>
     </g>
     <g id="text_1">
      <!-- 0.1 -->
      <defs>
       <path d="M 31.78125 66.40625 
Q 24.171875 66.40625 20.328125 58.90625 
Q 16.5 51.421875 16.5 36.375 
Q 16.5 21.390625 20.328125 13.890625 
Q 24.171875 6.390625 31.78125 6.390625 
Q 39.453125 6.390625 43.28125 13.890625 
Q 47.125 21.390625 47.125 36.375 
Q 47.125 51.421875 43.28125 58.90625 
Q 39.453125 66.40625 31.78125 66.40625 
z
M 31.78125 74.21875 
Q 44.046875 74.21875 50.515625 64.515625 
Q 56.984375 54.828125 56.984375 36.375 
Q 56.984375 17.96875 50.515625 8.265625 
Q 44.046875 -1.421875 31.78125 -1.421875 
Q 19.53125 -1.421875 13.0625 8.265625 
Q 6.59375 17.96875 6.59375 36.375 
Q 6.59375 54.828125 13.0625 64.515625 
Q 19.53125 74.21875 31.78125 74.21875 
z
" id="DejaVuSans-48"/>
       <path d="M 10.6875 12.40625 
L 21 12.40625 
L 21 0 
L 10.6875 0 
z
" id="DejaVuSans-46"/>
       <path d="M 12.40625 8.296875 
L 28.515625 8.296875 
L 28.515625 63.921875 
L 10.984375 60.40625 
L 10.984375 69.390625 
L 28.421875 72.90625 
L 38.28125 72.90625 
L 38.28125 8.296875 
L 54.390625 8.296875 
L 54.390625 0 
L 12.40625 0 
z
" id="DejaVuSans-49"/>
      </defs>
      <g transform="translate(57.831733 545.516562)scale(0.1 -0.1)">
       <use xlink:href="#DejaVuSans-48"/>
       <use x="63.623047" xlink:href="#DejaVuSans-46"/>
       <use x="95.410156" xlink:href="#DejaVuSans-49"/>
      </g>
     </g>
    </g>
    <g id="xtick_2">
     <g id="line2d_2">
      <g>
       <use style="stroke:#000000;stroke-width:0.8;" x="114.67673" xlink:href="#m2dd67c30fd" y="530.918125"/>
      </g>
     </g>
     <g id="text_2">
      <!-- 0.2 -->
      <defs>
       <path d="M 19.1875 8.296875 
L 53.609375 8.296875 
L 53.609375 0 
L 7.328125 0 
L 7.328125 8.296875 
Q 12.9375 14.109375 22.625 23.890625 
Q 32.328125 33.6875 34.8125 36.53125 
Q 39.546875 41.84375 41.421875 45.53125 
Q 43.3125 49.21875 43.3125 52.78125 
Q 43.3125 58.59375 39.234375 62.25 
Q 35.15625 65.921875 28.609375 65.921875 
Q 23.96875 65.921875 18.8125 64.3125 
Q 13.671875 62.703125 7.8125 59.421875 
L 7.8125 69.390625 
Q 13.765625 71.78125 18.9375 73 
Q 24.125 74.21875 28.421875 74.21875 
Q 39.75 74.21875 46.484375 68.546875 
Q 53.21875 62.890625 53.21875 53.421875 
Q 53.21875 48.921875 51.53125 44.890625 
Q 49.859375 40.875 45.40625 35.40625 
Q 44.1875 33.984375 37.640625 27.21875 
Q 31.109375 20.453125 19.1875 8.296875 
z
" id="DejaVuSans-50"/>
      </defs>
      <g transform="translate(106.725167 545.516562)scale(0.1 -0.1)">
       <use xlink:href="#DejaVuSans-48"/>
       <use x="63.623047" xlink:href="#DejaVuSans-46"/>
       <use x="95.410156" xlink:href="#DejaVuSans-50"/>
      </g>
     </g>
    </g>
    <g id="xtick_3">
     <g id="line2d_3">
      <g>
       <use style="stroke:#000000;stroke-width:0.8;" x="163.570164" xlink:href="#m2dd67c30fd" y="530.918125"/>
      </g>
     </g>
     <g id="text_3">
      <!-- 0.3 -->
      <defs>
       <path d="M 40.578125 39.3125 
Q 47.65625 37.796875 51.625 33 
Q 55.609375 28.21875 55.609375 21.1875 
Q 55.609375 10.40625 48.1875 4.484375 
Q 40.765625 -1.421875 27.09375 -1.421875 
Q 22.515625 -1.421875 17.65625 -0.515625 
Q 12.796875 0.390625 7.625 2.203125 
L 7.625 11.71875 
Q 11.71875 9.328125 16.59375 8.109375 
Q 21.484375 6.890625 26.8125 6.890625 
Q 36.078125 6.890625 40.9375 10.546875 
Q 45.796875 14.203125 45.796875 21.1875 
Q 45.796875 27.640625 41.28125 31.265625 
Q 36.765625 34.90625 28.71875 34.90625 
L 20.21875 34.90625 
L 20.21875 43.015625 
L 29.109375 43.015625 
Q 36.375 43.015625 40.234375 45.921875 
Q 44.09375 48.828125 44.09375 54.296875 
Q 44.09375 59.90625 40.109375 62.90625 
Q 36.140625 65.921875 28.71875 65.921875 
Q 24.65625 65.921875 20.015625 65.03125 
Q 15.375 64.15625 9.8125 62.3125 
L 9.8125 71.09375 
Q 15.4375 72.65625 20.34375 73.4375 
Q 25.25 74.21875 29.59375 74.21875 
Q 40.828125 74.21875 47.359375 69.109375 
Q 53.90625 64.015625 53.90625 55.328125 
Q 53.90625 49.265625 50.4375 45.09375 
Q 46.96875 40.921875 40.578125 39.3125 
z
" id="DejaVuSans-51"/>
      </defs>
      <g transform="translate(155.618602 545.516562)scale(0.1 -0.1)">
       <use xlink:href="#DejaVuSans-48"/>
       <use x="63.623047" xlink:href="#DejaVuSans-46"/>
       <use x="95.410156" xlink:href="#DejaVuSans-51"/>
      </g>
     </g>
    </g>
    <g id="xtick_4">
     <g id="line2d_4">
      <g>
       <use style="stroke:#000000;stroke-width:0.8;" x="212.463598" xlink:href="#m2dd67c30fd" y="530.918125"/>
      </g>
     </g>
     <g id="text_4">
      <!-- 0.4 -->
      <defs>
       <path d="M 37.796875 64.3125 
L 12.890625 25.390625 
L 37.796875 25.390625 
z
M 35.203125 72.90625 
L 47.609375 72.90625 
L 47.609375 25.390625 
L 58.015625 25.390625 
L 58.015625 17.1875 
L 47.609375 17.1875 
L 47.609375 0 
L 37.796875 0 
L 37.796875 17.1875 
L 4.890625 17.1875 
L 4.890625 26.703125 
z
" id="DejaVuSans-52"/>
      </defs>
      <g transform="translate(204.512036 545.516562)scale(0.1 -0.1)">
       <use xlink:href="#DejaVuSans-48"/>
       <use x="63.623047" xlink:href="#DejaVuSans-46"/>
       <use x="95.410156" xlink:href="#DejaVuSans-52"/>
      </g>
     </g>
    </g>
    <g id="xtick_5">
     <g id="line2d_5">
      <g>
       <use style="stroke:#000000;stroke-width:0.8;" x="261.357033" xlink:href="#m2dd67c30fd" y="530.918125"/>
      </g>
     </g>
     <g id="text_5">
      <!-- 0.5 -->
      <defs>
       <path d="M 10.796875 72.90625 
L 49.515625 72.90625 
L 49.515625 64.59375 
L 19.828125 64.59375 
L 19.828125 46.734375 
Q 21.96875 47.46875 24.109375 47.828125 
Q 26.265625 48.1875 28.421875 48.1875 
Q 40.625 48.1875 47.75 41.5 
Q 54.890625 34.8125 54.890625 23.390625 
Q 54.890625 11.625 47.5625 5.09375 
Q 40.234375 -1.421875 26.90625 -1.421875 
Q 22.3125 -1.421875 17.546875 -0.640625 
Q 12.796875 0.140625 7.71875 1.703125 
L 7.71875 11.625 
Q 12.109375 9.234375 16.796875 8.0625 
Q 21.484375 6.890625 26.703125 6.890625 
Q 35.15625 6.890625 40.078125 11.328125 
Q 45.015625 15.765625 45.015625 23.390625 
Q 45.015625 31 40.078125 35.4375 
Q 35.15625 39.890625 26.703125 39.890625 
Q 22.75 39.890625 18.8125 39.015625 
Q 14.890625 38.140625 10.796875 36.28125 
z
" id="DejaVuSans-53"/>
      </defs>
      <g transform="translate(253.40547 545.516562)scale(0.1 -0.1)">
       <use xlink:href="#DejaVuSans-48"/>
       <use x="63.623047" xlink:href="#DejaVuSans-46"/>
       <use x="95.410156" xlink:href="#DejaVuSans-53"/>
      </g>
     </g>
    </g>
    <g id="xtick_6">
     <g id="line2d_6">
      <g>
       <use style="stroke:#000000;stroke-width:0.8;" x="310.250467" xlink:href="#m2dd67c30fd" y="530.918125"/>
      </g>
     </g>
     <g id="text_6">
      <!-- 0.6 -->
      <defs>
       <path d="M 33.015625 40.375 
Q 26.375 40.375 22.484375 35.828125 
Q 18.609375 31.296875 18.609375 23.390625 
Q 18.609375 15.53125 22.484375 10.953125 
Q 26.375 6.390625 33.015625 6.390625 
Q 39.65625 6.390625 43.53125 10.953125 
Q 47.40625 15.53125 47.40625 23.390625 
Q 47.40625 31.296875 43.53125 35.828125 
Q 39.65625 40.375 33.015625 40.375 
z
M 52.59375 71.296875 
L 52.59375 62.3125 
Q 48.875 64.0625 45.09375 64.984375 
Q 41.3125 65.921875 37.59375 65.921875 
Q 27.828125 65.921875 22.671875 59.328125 
Q 17.53125 52.734375 16.796875 39.40625 
Q 19.671875 43.65625 24.015625 45.921875 
Q 28.375 48.1875 33.59375 48.1875 
Q 44.578125 48.1875 50.953125 41.515625 
Q 57.328125 34.859375 57.328125 23.390625 
Q 57.328125 12.15625 50.6875 5.359375 
Q 44.046875 -1.421875 33.015625 -1.421875 
Q 20.359375 -1.421875 13.671875 8.265625 
Q 6.984375 17.96875 6.984375 36.375 
Q 6.984375 53.65625 15.1875 63.9375 
Q 23.390625 74.21875 37.203125 74.21875 
Q 40.921875 74.21875 44.703125 73.484375 
Q 48.484375 72.75 52.59375 71.296875 
z
" id="DejaVuSans-54"/>
      </defs>
      <g transform="translate(302.298905 545.516562)scale(0.1 -0.1)">
       <use xlink:href="#DejaVuSans-48"/>
       <use x="63.623047" xlink:href="#DejaVuSans-46"/>
       <use x="95.410156" xlink:href="#DejaVuSans-54"/>
      </g>
     </g>
    </g>
    <g id="xtick_7">
     <g id="line2d_7">
      <g>
       <use style="stroke:#000000;stroke-width:0.8;" x="359.143902" xlink:href="#m2dd67c30fd" y="530.918125"/>
      </g>
     </g>
     <g id="text_7">
      <!-- 0.7 -->
      <defs>
       <path d="M 8.203125 72.90625 
L 55.078125 72.90625 
L 55.078125 68.703125 
L 28.609375 0 
L 18.3125 0 
L 43.21875 64.59375 
L 8.203125 64.59375 
z
" id="DejaVuSans-55"/>
      </defs>
      <g transform="translate(351.192339 545.516562)scale(0.1 -0.1)">
       <use xlink:href="#DejaVuSans-48"/>
       <use x="63.623047" xlink:href="#DejaVuSans-46"/>
       <use x="95.410156" xlink:href="#DejaVuSans-55"/>
      </g>
     </g>
    </g>
    <g id="xtick_8">
     <g id="line2d_8">
      <g>
       <use style="stroke:#000000;stroke-width:0.8;" x="408.037336" xlink:href="#m2dd67c30fd" y="530.918125"/>
      </g>
     </g>
     <g id="text_8">
      <!-- 0.8 -->
      <defs>
       <path d="M 31.78125 34.625 
Q 24.75 34.625 20.71875 30.859375 
Q 16.703125 27.09375 16.703125 20.515625 
Q 16.703125 13.921875 20.71875 10.15625 
Q 24.75 6.390625 31.78125 6.390625 
Q 38.8125 6.390625 42.859375 10.171875 
Q 46.921875 13.96875 46.921875 20.515625 
Q 46.921875 27.09375 42.890625 30.859375 
Q 38.875 34.625 31.78125 34.625 
z
M 21.921875 38.8125 
Q 15.578125 40.375 12.03125 44.71875 
Q 8.5 49.078125 8.5 55.328125 
Q 8.5 64.0625 14.71875 69.140625 
Q 20.953125 74.21875 31.78125 74.21875 
Q 42.671875 74.21875 48.875 69.140625 
Q 55.078125 64.0625 55.078125 55.328125 
Q 55.078125 49.078125 51.53125 44.71875 
Q 48 40.375 41.703125 38.8125 
Q 48.828125 37.15625 52.796875 32.3125 
Q 56.78125 27.484375 56.78125 20.515625 
Q 56.78125 9.90625 50.3125 4.234375 
Q 43.84375 -1.421875 31.78125 -1.421875 
Q 19.734375 -1.421875 13.25 4.234375 
Q 6.78125 9.90625 6.78125 20.515625 
Q 6.78125 27.484375 10.78125 32.3125 
Q 14.796875 37.15625 21.921875 38.8125 
z
M 18.3125 54.390625 
Q 18.3125 48.734375 21.84375 45.5625 
Q 25.390625 42.390625 31.78125 42.390625 
Q 38.140625 42.390625 41.71875 45.5625 
Q 45.3125 48.734375 45.3125 54.390625 
Q 45.3125 60.0625 41.71875 63.234375 
Q 38.140625 66.40625 31.78125 66.40625 
Q 25.390625 66.40625 21.84375 63.234375 
Q 18.3125 60.0625 18.3125 54.390625 
z
" id="DejaVuSans-56"/>
      </defs>
      <g transform="translate(400.085773 545.516562)scale(0.1 -0.1)">
       <use xlink:href="#DejaVuSans-48"/>
       <use x="63.623047" xlink:href="#DejaVuSans-46"/>
       <use x="95.410156" xlink:href="#DejaVuSans-56"/>
      </g>
     </g>
    </g>
    <g id="xtick_9">
     <g id="line2d_9">
      <g>
       <use style="stroke:#000000;stroke-width:0.8;" x="456.93077" xlink:href="#m2dd67c30fd" y="530.918125"/>
      </g>
     </g>
     <g id="text_9">
      <!-- 0.9 -->
      <defs>
       <path d="M 10.984375 1.515625 
L 10.984375 10.5 
Q 14.703125 8.734375 18.5 7.8125 
Q 22.3125 6.890625 25.984375 6.890625 
Q 35.75 6.890625 40.890625 13.453125 
Q 46.046875 20.015625 46.78125 33.40625 
Q 43.953125 29.203125 39.59375 26.953125 
Q 35.25 24.703125 29.984375 24.703125 
Q 19.046875 24.703125 12.671875 31.3125 
Q 6.296875 37.9375 6.296875 49.421875 
Q 6.296875 60.640625 12.9375 67.421875 
Q 19.578125 74.21875 30.609375 74.21875 
Q 43.265625 74.21875 49.921875 64.515625 
Q 56.59375 54.828125 56.59375 36.375 
Q 56.59375 19.140625 48.40625 8.859375 
Q 40.234375 -1.421875 26.421875 -1.421875 
Q 22.703125 -1.421875 18.890625 -0.6875 
Q 15.09375 0.046875 10.984375 1.515625 
z
M 30.609375 32.421875 
Q 37.25 32.421875 41.125 36.953125 
Q 45.015625 41.5 45.015625 49.421875 
Q 45.015625 57.28125 41.125 61.84375 
Q 37.25 66.40625 30.609375 66.40625 
Q 23.96875 66.40625 20.09375 61.84375 
Q 16.21875 57.28125 16.21875 49.421875 
Q 16.21875 41.5 20.09375 36.953125 
Q 23.96875 32.421875 30.609375 32.421875 
z
" id="DejaVuSans-57"/>
      </defs>
      <g transform="translate(448.979208 545.516562)scale(0.1 -0.1)">
       <use xlink:href="#DejaVuSans-48"/>
       <use x="63.623047" xlink:href="#DejaVuSans-46"/>
       <use x="95.410156" xlink:href="#DejaVuSans-57"/>
      </g>
     </g>
    </g>
    <g id="xtick_10">
     <g id="line2d_10">
      <g>
       <use style="stroke:#000000;stroke-width:0.8;" x="505.824205" xlink:href="#m2dd67c30fd" y="530.918125"/>
      </g>
     </g>
     <g id="text_10">
      <!-- 1.0 -->
      <g transform="translate(497.872642 545.516562)scale(0.1 -0.1)">
       <use xlink:href="#DejaVuSans-49"/>
       <use x="63.623047" xlink:href="#DejaVuSans-46"/>
       <use x="95.410156" xlink:href="#DejaVuSans-48"/>
      </g>
     </g>
    </g>
    <g id="text_11">
     <!-- training size -->
     <defs>
      <path d="M 18.3125 70.21875 
L 18.3125 54.6875 
L 36.8125 54.6875 
L 36.8125 47.703125 
L 18.3125 47.703125 
L 18.3125 18.015625 
Q 18.3125 11.328125 20.140625 9.421875 
Q 21.96875 7.515625 27.59375 7.515625 
L 36.8125 7.515625 
L 36.8125 0 
L 27.59375 0 
Q 17.1875 0 13.234375 3.875 
Q 9.28125 7.765625 9.28125 18.015625 
L 9.28125 47.703125 
L 2.6875 47.703125 
L 2.6875 54.6875 
L 9.28125 54.6875 
L 9.28125 70.21875 
z
" id="DejaVuSans-116"/>
      <path d="M 41.109375 46.296875 
Q 39.59375 47.171875 37.8125 47.578125 
Q 36.03125 48 33.890625 48 
Q 26.265625 48 22.1875 43.046875 
Q 18.109375 38.09375 18.109375 28.8125 
L 18.109375 0 
L 9.078125 0 
L 9.078125 54.6875 
L 18.109375 54.6875 
L 18.109375 46.1875 
Q 20.953125 51.171875 25.484375 53.578125 
Q 30.03125 56 36.53125 56 
Q 37.453125 56 38.578125 55.875 
Q 39.703125 55.765625 41.0625 55.515625 
z
" id="DejaVuSans-114"/>
      <path d="M 34.28125 27.484375 
Q 23.390625 27.484375 19.1875 25 
Q 14.984375 22.515625 14.984375 16.5 
Q 14.984375 11.71875 18.140625 8.90625 
Q 21.296875 6.109375 26.703125 6.109375 
Q 34.1875 6.109375 38.703125 11.40625 
Q 43.21875 16.703125 43.21875 25.484375 
L 43.21875 27.484375 
z
M 52.203125 31.203125 
L 52.203125 0 
L 43.21875 0 
L 43.21875 8.296875 
Q 40.140625 3.328125 35.546875 0.953125 
Q 30.953125 -1.421875 24.3125 -1.421875 
Q 15.921875 -1.421875 10.953125 3.296875 
Q 6 8.015625 6 15.921875 
Q 6 25.140625 12.171875 29.828125 
Q 18.359375 34.515625 30.609375 34.515625 
L 43.21875 34.515625 
L 43.21875 35.40625 
Q 43.21875 41.609375 39.140625 45 
Q 35.0625 48.390625 27.6875 48.390625 
Q 23 48.390625 18.546875 47.265625 
Q 14.109375 46.140625 10.015625 43.890625 
L 10.015625 52.203125 
Q 14.9375 54.109375 19.578125 55.046875 
Q 24.21875 56 28.609375 56 
Q 40.484375 56 46.34375 49.84375 
Q 52.203125 43.703125 52.203125 31.203125 
z
" id="DejaVuSans-97"/>
      <path d="M 9.421875 54.6875 
L 18.40625 54.6875 
L 18.40625 0 
L 9.421875 0 
z
M 9.421875 75.984375 
L 18.40625 75.984375 
L 18.40625 64.59375 
L 9.421875 64.59375 
z
" id="DejaVuSans-105"/>
      <path d="M 54.890625 33.015625 
L 54.890625 0 
L 45.90625 0 
L 45.90625 32.71875 
Q 45.90625 40.484375 42.875 44.328125 
Q 39.84375 48.1875 33.796875 48.1875 
Q 26.515625 48.1875 22.3125 43.546875 
Q 18.109375 38.921875 18.109375 30.90625 
L 18.109375 0 
L 9.078125 0 
L 9.078125 54.6875 
L 18.109375 54.6875 
L 18.109375 46.1875 
Q 21.34375 51.125 25.703125 53.5625 
Q 30.078125 56 35.796875 56 
Q 45.21875 56 50.046875 50.171875 
Q 54.890625 44.34375 54.890625 33.015625 
z
" id="DejaVuSans-110"/>
      <path d="M 45.40625 27.984375 
Q 45.40625 37.75 41.375 43.109375 
Q 37.359375 48.484375 30.078125 48.484375 
Q 22.859375 48.484375 18.828125 43.109375 
Q 14.796875 37.75 14.796875 27.984375 
Q 14.796875 18.265625 18.828125 12.890625 
Q 22.859375 7.515625 30.078125 7.515625 
Q 37.359375 7.515625 41.375 12.890625 
Q 45.40625 18.265625 45.40625 27.984375 
z
M 54.390625 6.78125 
Q 54.390625 -7.171875 48.1875 -13.984375 
Q 42 -20.796875 29.203125 -20.796875 
Q 24.46875 -20.796875 20.265625 -20.09375 
Q 16.0625 -19.390625 12.109375 -17.921875 
L 12.109375 -9.1875 
Q 16.0625 -11.328125 19.921875 -12.34375 
Q 23.78125 -13.375 27.78125 -13.375 
Q 36.625 -13.375 41.015625 -8.765625 
Q 45.40625 -4.15625 45.40625 5.171875 
L 45.40625 9.625 
Q 42.625 4.78125 38.28125 2.390625 
Q 33.9375 0 27.875 0 
Q 17.828125 0 11.671875 7.65625 
Q 5.515625 15.328125 5.515625 27.984375 
Q 5.515625 40.671875 11.671875 48.328125 
Q 17.828125 56 27.875 56 
Q 33.9375 56 38.28125 53.609375 
Q 42.625 51.21875 45.40625 46.390625 
L 45.40625 54.6875 
L 54.390625 54.6875 
z
" id="DejaVuSans-103"/>
      <path id="DejaVuSans-32"/>
      <path d="M 44.28125 53.078125 
L 44.28125 44.578125 
Q 40.484375 46.53125 36.375 47.5 
Q 32.28125 48.484375 27.875 48.484375 
Q 21.1875 48.484375 17.84375 46.4375 
Q 14.5 44.390625 14.5 40.28125 
Q 14.5 37.15625 16.890625 35.375 
Q 19.28125 33.59375 26.515625 31.984375 
L 29.59375 31.296875 
Q 39.15625 29.25 43.1875 25.515625 
Q 47.21875 21.78125 47.21875 15.09375 
Q 47.21875 7.46875 41.1875 3.015625 
Q 35.15625 -1.421875 24.609375 -1.421875 
Q 20.21875 -1.421875 15.453125 -0.5625 
Q 10.6875 0.296875 5.421875 2 
L 5.421875 11.28125 
Q 10.40625 8.6875 15.234375 7.390625 
Q 20.0625 6.109375 24.8125 6.109375 
Q 31.15625 6.109375 34.5625 8.28125 
Q 37.984375 10.453125 37.984375 14.40625 
Q 37.984375 18.0625 35.515625 20.015625 
Q 33.0625 21.96875 24.703125 23.78125 
L 21.578125 24.515625 
Q 13.234375 26.265625 9.515625 29.90625 
Q 5.8125 33.546875 5.8125 39.890625 
Q 5.8125 47.609375 11.28125 51.796875 
Q 16.75 56 26.8125 56 
Q 31.78125 56 36.171875 55.265625 
Q 40.578125 54.546875 44.28125 53.078125 
z
" id="DejaVuSans-115"/>
      <path d="M 5.515625 54.6875 
L 48.1875 54.6875 
L 48.1875 46.484375 
L 14.40625 7.171875 
L 48.1875 7.171875 
L 48.1875 0 
L 4.296875 0 
L 4.296875 8.203125 
L 38.09375 47.515625 
L 5.515625 47.515625 
z
" id="DejaVuSans-122"/>
      <path d="M 56.203125 29.59375 
L 56.203125 25.203125 
L 14.890625 25.203125 
Q 15.484375 15.921875 20.484375 11.0625 
Q 25.484375 6.203125 34.421875 6.203125 
Q 39.59375 6.203125 44.453125 7.46875 
Q 49.3125 8.734375 54.109375 11.28125 
L 54.109375 2.78125 
Q 49.265625 0.734375 44.1875 -0.34375 
Q 39.109375 -1.421875 33.890625 -1.421875 
Q 20.796875 -1.421875 13.15625 6.1875 
Q 5.515625 13.8125 5.515625 26.8125 
Q 5.515625 40.234375 12.765625 48.109375 
Q 20.015625 56 32.328125 56 
Q 43.359375 56 49.78125 48.890625 
Q 56.203125 41.796875 56.203125 29.59375 
z
M 47.21875 32.234375 
Q 47.125 39.59375 43.09375 43.984375 
Q 39.0625 48.390625 32.421875 48.390625 
Q 24.90625 48.390625 20.390625 44.140625 
Q 15.875 39.890625 15.1875 32.171875 
z
" id="DejaVuSans-101"/>
     </defs>
     <g transform="translate(255.150625 559.194687)scale(0.1 -0.1)">
      <use xlink:href="#DejaVuSans-116"/>
      <use x="39.208984" xlink:href="#DejaVuSans-114"/>
      <use x="80.322266" xlink:href="#DejaVuSans-97"/>
      <use x="141.601562" xlink:href="#DejaVuSans-105"/>
      <use x="169.384766" xlink:href="#DejaVuSans-110"/>
      <use x="232.763672" xlink:href="#DejaVuSans-105"/>
      <use x="260.546875" xlink:href="#DejaVuSans-110"/>
      <use x="323.925781" xlink:href="#DejaVuSans-103"/>
      <use x="387.402344" xlink:href="#DejaVuSans-32"/>
      <use x="419.189453" xlink:href="#DejaVuSans-115"/>
      <use x="471.289062" xlink:href="#DejaVuSans-105"/>
      <use x="499.072266" xlink:href="#DejaVuSans-122"/>
      <use x="551.5625" xlink:href="#DejaVuSans-101"/>
     </g>
    </g>
   </g>
   <g id="matplotlib.axis_2">
    <g id="ytick_1">
     <g id="line2d_11">
      <defs>
       <path d="M 0 0 
L -3.5 0 
" id="mf121d6e65f" style="stroke:#000000;stroke-width:0.8;"/>
      </defs>
      <g>
       <use style="stroke:#000000;stroke-width:0.8;" x="43.78125" xlink:href="#mf121d6e65f" y="501.016505"/>
      </g>
     </g>
     <g id="text_12">
      <!-- 0.1 -->
      <g transform="translate(20.878125 504.815724)scale(0.1 -0.1)">
       <use xlink:href="#DejaVuSans-48"/>
       <use x="63.623047" xlink:href="#DejaVuSans-46"/>
       <use x="95.410156" xlink:href="#DejaVuSans-49"/>
      </g>
     </g>
    </g>
    <g id="ytick_2">
     <g id="line2d_12">
      <g>
       <use style="stroke:#000000;stroke-width:0.8;" x="43.78125" xlink:href="#mf121d6e65f" y="423.836371"/>
      </g>
     </g>
     <g id="text_13">
      <!-- 0.2 -->
      <g transform="translate(20.878125 427.635589)scale(0.1 -0.1)">
       <use xlink:href="#DejaVuSans-48"/>
       <use x="63.623047" xlink:href="#DejaVuSans-46"/>
       <use x="95.410156" xlink:href="#DejaVuSans-50"/>
      </g>
     </g>
    </g>
    <g id="ytick_3">
     <g id="line2d_13">
      <g>
       <use style="stroke:#000000;stroke-width:0.8;" x="43.78125" xlink:href="#mf121d6e65f" y="346.656236"/>
      </g>
     </g>
     <g id="text_14">
      <!-- 0.3 -->
      <g transform="translate(20.878125 350.455455)scale(0.1 -0.1)">
       <use xlink:href="#DejaVuSans-48"/>
       <use x="63.623047" xlink:href="#DejaVuSans-46"/>
       <use x="95.410156" xlink:href="#DejaVuSans-51"/>
      </g>
     </g>
    </g>
    <g id="ytick_4">
     <g id="line2d_14">
      <g>
       <use style="stroke:#000000;stroke-width:0.8;" x="43.78125" xlink:href="#mf121d6e65f" y="269.476102"/>
      </g>
     </g>
     <g id="text_15">
      <!-- 0.4 -->
      <g transform="translate(20.878125 273.27532)scale(0.1 -0.1)">
       <use xlink:href="#DejaVuSans-48"/>
       <use x="63.623047" xlink:href="#DejaVuSans-46"/>
       <use x="95.410156" xlink:href="#DejaVuSans-52"/>
      </g>
     </g>
    </g>
    <g id="ytick_5">
     <g id="line2d_15">
      <g>
       <use style="stroke:#000000;stroke-width:0.8;" x="43.78125" xlink:href="#mf121d6e65f" y="192.295967"/>
      </g>
     </g>
     <g id="text_16">
      <!-- 0.5 -->
      <g transform="translate(20.878125 196.095186)scale(0.1 -0.1)">
       <use xlink:href="#DejaVuSans-48"/>
       <use x="63.623047" xlink:href="#DejaVuSans-46"/>
       <use x="95.410156" xlink:href="#DejaVuSans-53"/>
      </g>
     </g>
    </g>
    <g id="ytick_6">
     <g id="line2d_16">
      <g>
       <use style="stroke:#000000;stroke-width:0.8;" x="43.78125" xlink:href="#mf121d6e65f" y="115.115833"/>
      </g>
     </g>
     <g id="text_17">
      <!-- 0.6 -->
      <g transform="translate(20.878125 118.915052)scale(0.1 -0.1)">
       <use xlink:href="#DejaVuSans-48"/>
       <use x="63.623047" xlink:href="#DejaVuSans-46"/>
       <use x="95.410156" xlink:href="#DejaVuSans-54"/>
      </g>
     </g>
    </g>
    <g id="ytick_7">
     <g id="line2d_17">
      <g>
       <use style="stroke:#000000;stroke-width:0.8;" x="43.78125" xlink:href="#mf121d6e65f" y="37.935698"/>
      </g>
     </g>
     <g id="text_18">
      <!-- 0.7 -->
      <g transform="translate(20.878125 41.734917)scale(0.1 -0.1)">
       <use xlink:href="#DejaVuSans-48"/>
       <use x="63.623047" xlink:href="#DejaVuSans-46"/>
       <use x="95.410156" xlink:href="#DejaVuSans-55"/>
      </g>
     </g>
    </g>
    <g id="text_19">
     <!-- performance metric (e.g. test accuracy) -->
     <defs>
      <path d="M 18.109375 8.203125 
L 18.109375 -20.796875 
L 9.078125 -20.796875 
L 9.078125 54.6875 
L 18.109375 54.6875 
L 18.109375 46.390625 
Q 20.953125 51.265625 25.265625 53.625 
Q 29.59375 56 35.59375 56 
Q 45.5625 56 51.78125 48.09375 
Q 58.015625 40.1875 58.015625 27.296875 
Q 58.015625 14.40625 51.78125 6.484375 
Q 45.5625 -1.421875 35.59375 -1.421875 
Q 29.59375 -1.421875 25.265625 0.953125 
Q 20.953125 3.328125 18.109375 8.203125 
z
M 48.6875 27.296875 
Q 48.6875 37.203125 44.609375 42.84375 
Q 40.53125 48.484375 33.40625 48.484375 
Q 26.265625 48.484375 22.1875 42.84375 
Q 18.109375 37.203125 18.109375 27.296875 
Q 18.109375 17.390625 22.1875 11.75 
Q 26.265625 6.109375 33.40625 6.109375 
Q 40.53125 6.109375 44.609375 11.75 
Q 48.6875 17.390625 48.6875 27.296875 
z
" id="DejaVuSans-112"/>
      <path d="M 37.109375 75.984375 
L 37.109375 68.5 
L 28.515625 68.5 
Q 23.6875 68.5 21.796875 66.546875 
Q 19.921875 64.59375 19.921875 59.515625 
L 19.921875 54.6875 
L 34.71875 54.6875 
L 34.71875 47.703125 
L 19.921875 47.703125 
L 19.921875 0 
L 10.890625 0 
L 10.890625 47.703125 
L 2.296875 47.703125 
L 2.296875 54.6875 
L 10.890625 54.6875 
L 10.890625 58.5 
Q 10.890625 67.625 15.140625 71.796875 
Q 19.390625 75.984375 28.609375 75.984375 
z
" id="DejaVuSans-102"/>
      <path d="M 30.609375 48.390625 
Q 23.390625 48.390625 19.1875 42.75 
Q 14.984375 37.109375 14.984375 27.296875 
Q 14.984375 17.484375 19.15625 11.84375 
Q 23.34375 6.203125 30.609375 6.203125 
Q 37.796875 6.203125 41.984375 11.859375 
Q 46.1875 17.53125 46.1875 27.296875 
Q 46.1875 37.015625 41.984375 42.703125 
Q 37.796875 48.390625 30.609375 48.390625 
z
M 30.609375 56 
Q 42.328125 56 49.015625 48.375 
Q 55.71875 40.765625 55.71875 27.296875 
Q 55.71875 13.875 49.015625 6.21875 
Q 42.328125 -1.421875 30.609375 -1.421875 
Q 18.84375 -1.421875 12.171875 6.21875 
Q 5.515625 13.875 5.515625 27.296875 
Q 5.515625 40.765625 12.171875 48.375 
Q 18.84375 56 30.609375 56 
z
" id="DejaVuSans-111"/>
      <path d="M 52 44.1875 
Q 55.375 50.25 60.0625 53.125 
Q 64.75 56 71.09375 56 
Q 79.640625 56 84.28125 50.015625 
Q 88.921875 44.046875 88.921875 33.015625 
L 88.921875 0 
L 79.890625 0 
L 79.890625 32.71875 
Q 79.890625 40.578125 77.09375 44.375 
Q 74.3125 48.1875 68.609375 48.1875 
Q 61.625 48.1875 57.5625 43.546875 
Q 53.515625 38.921875 53.515625 30.90625 
L 53.515625 0 
L 44.484375 0 
L 44.484375 32.71875 
Q 44.484375 40.625 41.703125 44.40625 
Q 38.921875 48.1875 33.109375 48.1875 
Q 26.21875 48.1875 22.15625 43.53125 
Q 18.109375 38.875 18.109375 30.90625 
L 18.109375 0 
L 9.078125 0 
L 9.078125 54.6875 
L 18.109375 54.6875 
L 18.109375 46.1875 
Q 21.1875 51.21875 25.484375 53.609375 
Q 29.78125 56 35.6875 56 
Q 41.65625 56 45.828125 52.96875 
Q 50 49.953125 52 44.1875 
z
" id="DejaVuSans-109"/>
      <path d="M 48.78125 52.59375 
L 48.78125 44.1875 
Q 44.96875 46.296875 41.140625 47.34375 
Q 37.3125 48.390625 33.40625 48.390625 
Q 24.65625 48.390625 19.8125 42.84375 
Q 14.984375 37.3125 14.984375 27.296875 
Q 14.984375 17.28125 19.8125 11.734375 
Q 24.65625 6.203125 33.40625 6.203125 
Q 37.3125 6.203125 41.140625 7.25 
Q 44.96875 8.296875 48.78125 10.40625 
L 48.78125 2.09375 
Q 45.015625 0.34375 40.984375 -0.53125 
Q 36.96875 -1.421875 32.421875 -1.421875 
Q 20.0625 -1.421875 12.78125 6.34375 
Q 5.515625 14.109375 5.515625 27.296875 
Q 5.515625 40.671875 12.859375 48.328125 
Q 20.21875 56 33.015625 56 
Q 37.15625 56 41.109375 55.140625 
Q 45.0625 54.296875 48.78125 52.59375 
z
" id="DejaVuSans-99"/>
      <path d="M 31 75.875 
Q 24.46875 64.65625 21.28125 53.65625 
Q 18.109375 42.671875 18.109375 31.390625 
Q 18.109375 20.125 21.3125 9.0625 
Q 24.515625 -2 31 -13.1875 
L 23.1875 -13.1875 
Q 15.875 -1.703125 12.234375 9.375 
Q 8.59375 20.453125 8.59375 31.390625 
Q 8.59375 42.28125 12.203125 53.3125 
Q 15.828125 64.359375 23.1875 75.875 
z
" id="DejaVuSans-40"/>
      <path d="M 8.5 21.578125 
L 8.5 54.6875 
L 17.484375 54.6875 
L 17.484375 21.921875 
Q 17.484375 14.15625 20.5 10.265625 
Q 23.53125 6.390625 29.59375 6.390625 
Q 36.859375 6.390625 41.078125 11.03125 
Q 45.3125 15.671875 45.3125 23.6875 
L 45.3125 54.6875 
L 54.296875 54.6875 
L 54.296875 0 
L 45.3125 0 
L 45.3125 8.40625 
Q 42.046875 3.421875 37.71875 1 
Q 33.40625 -1.421875 27.6875 -1.421875 
Q 18.265625 -1.421875 13.375 4.4375 
Q 8.5 10.296875 8.5 21.578125 
z
M 31.109375 56 
z
" id="DejaVuSans-117"/>
      <path d="M 32.171875 -5.078125 
Q 28.375 -14.84375 24.75 -17.8125 
Q 21.140625 -20.796875 15.09375 -20.796875 
L 7.90625 -20.796875 
L 7.90625 -13.28125 
L 13.1875 -13.28125 
Q 16.890625 -13.28125 18.9375 -11.515625 
Q 21 -9.765625 23.484375 -3.21875 
L 25.09375 0.875 
L 2.984375 54.6875 
L 12.5 54.6875 
L 29.59375 11.921875 
L 46.6875 54.6875 
L 56.203125 54.6875 
z
" id="DejaVuSans-121"/>
      <path d="M 8.015625 75.875 
L 15.828125 75.875 
Q 23.140625 64.359375 26.78125 53.3125 
Q 30.421875 42.28125 30.421875 31.390625 
Q 30.421875 20.453125 26.78125 9.375 
Q 23.140625 -1.703125 15.828125 -13.1875 
L 8.015625 -13.1875 
Q 14.5 -2 17.703125 9.0625 
Q 20.90625 20.125 20.90625 31.390625 
Q 20.90625 42.671875 17.703125 53.65625 
Q 14.5 64.65625 8.015625 75.875 
z
" id="DejaVuSans-41"/>
     </defs>
     <g transform="translate(14.798438 376.589219)rotate(-90)scale(0.1 -0.1)">
      <use xlink:href="#DejaVuSans-112"/>
      <use x="63.476562" xlink:href="#DejaVuSans-101"/>
      <use x="125" xlink:href="#DejaVuSans-114"/>
      <use x="166.113281" xlink:href="#DejaVuSans-102"/>
      <use x="201.318359" xlink:href="#DejaVuSans-111"/>
      <use x="262.5" xlink:href="#DejaVuSans-114"/>
      <use x="301.863281" xlink:href="#DejaVuSans-109"/>
      <use x="399.275391" xlink:href="#DejaVuSans-97"/>
      <use x="460.554688" xlink:href="#DejaVuSans-110"/>
      <use x="523.933594" xlink:href="#DejaVuSans-99"/>
      <use x="578.914062" xlink:href="#DejaVuSans-101"/>
      <use x="640.4375" xlink:href="#DejaVuSans-32"/>
      <use x="672.224609" xlink:href="#DejaVuSans-109"/>
      <use x="769.636719" xlink:href="#DejaVuSans-101"/>
      <use x="831.160156" xlink:href="#DejaVuSans-116"/>
      <use x="870.369141" xlink:href="#DejaVuSans-114"/>
      <use x="911.482422" xlink:href="#DejaVuSans-105"/>
      <use x="939.265625" xlink:href="#DejaVuSans-99"/>
      <use x="994.246094" xlink:href="#DejaVuSans-32"/>
      <use x="1026.033203" xlink:href="#DejaVuSans-40"/>
      <use x="1065.046875" xlink:href="#DejaVuSans-101"/>
      <use x="1126.570312" xlink:href="#DejaVuSans-46"/>
      <use x="1158.357422" xlink:href="#DejaVuSans-103"/>
      <use x="1221.833984" xlink:href="#DejaVuSans-46"/>
      <use x="1253.621094" xlink:href="#DejaVuSans-32"/>
      <use x="1285.408203" xlink:href="#DejaVuSans-116"/>
      <use x="1324.617188" xlink:href="#DejaVuSans-101"/>
      <use x="1386.140625" xlink:href="#DejaVuSans-115"/>
      <use x="1438.240234" xlink:href="#DejaVuSans-116"/>
      <use x="1477.449219" xlink:href="#DejaVuSans-32"/>
      <use x="1509.236328" xlink:href="#DejaVuSans-97"/>
      <use x="1570.515625" xlink:href="#DejaVuSans-99"/>
      <use x="1625.496094" xlink:href="#DejaVuSans-99"/>
      <use x="1680.476562" xlink:href="#DejaVuSans-117"/>
      <use x="1743.855469" xlink:href="#DejaVuSans-114"/>
      <use x="1784.96875" xlink:href="#DejaVuSans-97"/>
      <use x="1846.248047" xlink:href="#DejaVuSans-99"/>
      <use x="1901.228516" xlink:href="#DejaVuSans-121"/>
      <use x="1960.408203" xlink:href="#DejaVuSans-41"/>
     </g>
    </g>
   </g>
   <g id="line2d_18">
    <path clip-path="url(#p8f836ef84c)" d="M 65.783295 244.011039 
L 114.67673 244.011039 
L 114.67673 239.116914 
L 163.570164 239.116914 
L 163.570164 234.235813 
L 212.463598 234.235813 
L 212.463598 229.370095 
L 261.357033 229.370095 
L 261.357033 224.522088 
L 310.250467 224.522088 
L 310.250467 219.694086 
L 359.143902 219.694086 
L 359.143902 214.888345 
L 408.037336 214.888345 
L 408.037336 210.107077 
L 456.93077 210.107077 
L 456.93077 205.352448 
L 505.824205 205.352448 
L 505.824205 200.626574 
" style="fill:none;stroke:#1f77b4;stroke-linecap:square;stroke-width:1.5;"/>
   </g>
   <g id="line2d_19">
    <path clip-path="url(#p8f836ef84c)" d="M 65.783295 297.726417 
L 114.67673 297.726417 
L 114.67673 287.195933 
L 163.570164 287.195933 
L 163.570164 276.811923 
L 212.463598 276.811923 
L 212.463598 266.60878 
L 261.357033 266.60878 
L 261.357033 256.618406 
L 310.250467 256.618406 
L 310.250467 246.869854 
L 359.143902 246.869854 
L 359.143902 237.389052 
L 408.037336 237.389052 
L 408.037336 228.198609 
L 456.93077 228.198609 
L 456.93077 219.317697 
L 505.824205 219.317697 
L 505.824205 210.76202 
" style="fill:none;stroke:#aec7e8;stroke-linecap:square;stroke-width:1.5;"/>
   </g>
   <g id="line2d_20">
    <path clip-path="url(#p8f836ef84c)" d="M 65.783295 415.655463 
L 114.67673 415.655463 
L 114.67673 376.819076 
L 163.570164 376.819076 
L 163.570164 333.694885 
L 212.463598 333.694885 
L 212.463598 287.787354 
L 261.357033 287.787354 
L 261.357033 241.059964 
L 310.250467 241.059964 
L 310.250467 195.6194 
L 359.143902 195.6194 
L 359.143902 153.349203 
L 408.037336 153.349203 
L 408.037336 115.621441 
L 456.93077 115.621441 
L 456.93077 83.171103 
L 505.824205 83.171103 
L 505.824205 56.136437 
" style="fill:none;stroke:#ff7f0e;stroke-linecap:square;stroke-width:1.5;"/>
   </g>
   <g id="line2d_21">
    <path clip-path="url(#p8f836ef84c)" d="M 65.783295 301.312888 
L 114.67673 301.312888 
L 114.67673 287.480973 
L 163.570164 287.480973 
L 163.570164 273.91525 
L 212.463598 273.91525 
L 212.463598 260.692983 
L 261.357033 260.692983 
L 261.357033 247.883271 
L 310.250467 247.883271 
L 310.250467 235.545831 
L 359.143902 235.545831 
L 359.143902 223.730205 
L 408.037336 223.730205 
L 408.037336 212.475403 
L 456.93077 212.475403 
L 456.93077 201.809941 
L 505.824205 201.809941 
L 505.824205 191.752229 
" style="fill:none;stroke:#ffbb78;stroke-linecap:square;stroke-width:1.5;"/>
   </g>
   <g id="line2d_22">
    <path clip-path="url(#p8f836ef84c)" d="M 65.783295 435.946848 
L 114.67673 435.946848 
L 114.67673 401.593783 
L 163.570164 401.593783 
L 163.570164 363.347899 
L 212.463598 363.347899 
L 212.463598 322.535766 
L 261.357033 322.535766 
L 261.357033 280.909146 
L 310.250467 280.909146 
L 310.250467 240.363187 
L 359.143902 240.363187 
L 359.143902 202.603671 
L 408.037336 202.603671 
L 408.037336 168.881154 
L 456.93077 168.881154 
L 456.93077 139.8719 
L 505.824205 139.8719 
L 505.824205 115.710909 
" style="fill:none;stroke:#2ca02c;stroke-linecap:square;stroke-width:1.5;"/>
   </g>
   <g id="line2d_23">
    <path clip-path="url(#p8f836ef84c)" d="M 65.783295 325.367848 
L 114.67673 325.367848 
L 114.67673 302.361205 
L 163.570164 302.361205 
L 163.570164 279.753567 
L 212.463598 279.753567 
L 212.463598 257.899886 
L 261.357033 257.899886 
L 261.357033 237.107825 
L 310.250467 237.107825 
L 310.250467 217.622553 
L 359.143902 217.622553 
L 359.143902 199.618884 
L 408.037336 199.618884 
L 408.037336 183.200662 
L 456.93077 183.200662 
L 456.93077 168.406178 
L 505.824205 168.406178 
L 505.824205 155.217757 
" style="fill:none;stroke:#98df8a;stroke-linecap:square;stroke-width:1.5;"/>
   </g>
   <g id="line2d_24">
    <path clip-path="url(#p8f836ef84c)" d="M 65.783295 376.475199 
L 114.67673 376.475199 
L 114.67673 382.548231 
L 163.570164 382.548231 
L 163.570164 388.559705 
L 212.463598 388.559705 
L 212.463598 394.502684 
L 261.357033 394.502684 
L 261.357033 400.370565 
L 310.250467 400.370565 
L 310.250467 406.157109 
L 359.143902 406.157109 
L 359.143902 411.856464 
L 408.037336 411.856464 
L 408.037336 417.463176 
L 456.93077 417.463176 
L 456.93077 422.972215 
L 505.824205 422.972215 
L 505.824205 428.378976 
" style="fill:none;stroke:#d62728;stroke-linecap:square;stroke-width:1.5;"/>
   </g>
   <g id="line2d_25">
    <path clip-path="url(#p8f836ef84c)" d="M 65.783295 326.868477 
L 114.67673 326.868477 
L 114.67673 303.482009 
L 163.570164 303.482009 
L 163.570164 280.482632 
L 212.463598 280.482632 
L 212.463598 258.243714 
L 261.357033 258.243714 
L 261.357033 237.089417 
L 310.250467 237.089417 
L 310.250467 217.278019 
L 359.143902 217.278019 
L 359.143902 198.99324 
L 408.037336 198.99324 
L 408.037336 182.343485 
L 456.93077 182.343485 
L 456.93077 167.367687 
L 505.824205 167.367687 
L 505.824205 154.045682 
" style="fill:none;stroke:#ff9896;stroke-linecap:square;stroke-width:1.5;"/>
   </g>
   <g id="line2d_26">
    <path clip-path="url(#p8f836ef84c)" d="M 65.783295 367.135631 
L 114.67673 367.135631 
L 114.67673 328.355561 
L 163.570164 328.355561 
L 163.570164 287.570169 
L 212.463598 287.570169 
L 212.463598 246.172124 
L 261.357033 246.172124 
L 261.357033 205.639319 
L 310.250467 205.639319 
L 310.250467 167.329819 
L 359.143902 167.329819 
L 359.143902 132.310627 
L 408.037336 132.310627 
L 408.037336 101.262734 
L 456.93077 101.262734 
L 456.93077 74.472927 
L 505.824205 74.472927 
L 505.824205 51.89332 
" style="fill:none;stroke:#9467bd;stroke-linecap:square;stroke-width:1.5;"/>
   </g>
   <g id="line2d_27">
    <path clip-path="url(#p8f836ef84c)" d="M 65.783295 376.269899 
L 114.67673 376.269899 
L 114.67673 342.983417 
L 163.570164 342.983417 
L 163.570164 308.572601 
L 212.463598 308.572601 
L 212.463598 274.132828 
L 261.357033 274.132828 
L 261.357033 240.763138 
L 310.250467 240.763138 
L 310.250467 209.4302 
L 359.143902 209.4302 
L 359.143902 180.865631 
L 408.037336 180.865631 
L 408.037336 155.517285 
L 456.93077 155.517285 
L 456.93077 133.555422 
L 505.824205 133.555422 
L 505.824205 114.919034 
" style="fill:none;stroke:#c5b0d5;stroke-linecap:square;stroke-width:1.5;"/>
   </g>
   <g id="line2d_28">
    <path clip-path="url(#p8f836ef84c)" d="M 65.783295 241.385297 
L 114.67673 241.385297 
L 114.67673 230.677108 
L 163.570164 230.677108 
L 163.570164 220.085308 
L 212.463598 220.085308 
L 212.463598 209.63515 
L 261.357033 209.63515 
L 261.357033 199.350488 
L 310.250467 199.350488 
L 310.250467 189.253579 
L 359.143902 189.253579 
L 359.143902 179.364914 
L 408.037336 179.364914 
L 408.037336 169.703088 
L 456.93077 169.703088 
L 456.93077 160.284699 
L 505.824205 160.284699 
L 505.824205 151.124282 
" style="fill:none;stroke:#8c564b;stroke-linecap:square;stroke-width:1.5;"/>
   </g>
   <g id="line2d_29">
    <path clip-path="url(#p8f836ef84c)" d="M 65.783295 250.289924 
L 114.67673 250.289924 
L 114.67673 231.141964 
L 163.570164 231.141964 
L 163.570164 212.402841 
L 212.463598 212.402841 
L 212.463598 194.214057 
L 261.357033 194.214057 
L 261.357033 176.699864 
L 310.250467 176.699864 
L 310.250467 159.964436 
L 359.143902 159.964436 
L 359.143902 144.090242 
L 408.037336 144.090242 
L 408.037336 129.137582 
L 456.93077 129.137582 
L 456.93077 115.145181 
L 505.824205 115.145181 
L 505.824205 102.131631 
" style="fill:none;stroke:#c49c94;stroke-linecap:square;stroke-width:1.5;"/>
   </g>
   <g id="line2d_30">
    <path clip-path="url(#p8f836ef84c)" d="M 65.783295 321.229599 
L 114.67673 321.229599 
L 114.67673 313.164215 
L 163.570164 313.164215 
L 163.570164 305.184728 
L 212.463598 305.184728 
L 212.463598 297.309679 
L 261.357033 297.309679 
L 261.357033 289.556604 
L 310.250467 289.556604 
L 310.250467 281.941892 
L 359.143902 281.941892 
L 359.143902 274.480665 
L 408.037336 274.480665 
L 408.037336 267.186678 
L 456.93077 267.186678 
L 456.93077 260.072248 
L 505.824205 260.072248 
L 505.824205 253.148208 
" style="fill:none;stroke:#e377c2;stroke-linecap:square;stroke-width:1.5;"/>
   </g>
   <g id="line2d_31">
    <path clip-path="url(#p8f836ef84c)" d="M 65.783295 341.193062 
L 114.67673 341.193062 
L 114.67673 313.543976 
L 163.570164 313.543976 
L 163.570164 286.010897 
L 212.463598 286.010897 
L 212.463598 259.205178 
L 261.357033 259.205178 
L 261.357033 233.674938 
L 310.250467 233.674938 
L 310.250467 209.863448 
L 359.143902 209.863448 
L 359.143902 188.084901 
L 408.037336 188.084901 
L 408.037336 168.518984 
L 456.93077 168.518984 
L 456.93077 151.221471 
L 505.824205 151.221471 
L 505.824205 136.145554 
" style="fill:none;stroke:#f7b6d2;stroke-linecap:square;stroke-width:1.5;"/>
   </g>
   <g id="line2d_32">
    <path clip-path="url(#p8f836ef84c)" d="M 65.783295 209.244839 
L 114.67673 209.244839 
L 114.67673 191.806154 
L 163.570164 191.806154 
L 163.570164 174.686448 
L 212.463598 174.686448 
L 212.463598 157.973721 
L 261.357033 157.973721 
L 261.357033 141.747238 
L 310.250467 141.747238 
L 310.250467 126.076247 
L 359.143902 126.076247 
L 359.143902 111.019117 
L 408.037336 111.019117 
L 408.037336 96.622893 
L 456.93077 96.622893 
L 456.93077 82.923247 
L 505.824205 82.923247 
L 505.824205 69.944786 
" style="fill:none;stroke:#7f7f7f;stroke-linecap:square;stroke-width:1.5;"/>
   </g>
   <g id="line2d_33">
    <path clip-path="url(#p8f836ef84c)" d="M 65.783295 364.836373 
L 114.67673 364.836373 
L 114.67673 369.705415 
L 163.570164 369.705415 
L 163.570164 374.545036 
L 212.463598 374.545036 
L 212.463598 379.35157 
L 261.357033 379.35157 
L 261.357033 384.121452 
L 310.250467 384.121452 
L 310.250467 388.851234 
L 359.143902 388.851234 
L 359.143902 393.537589 
L 408.037336 393.537589 
L 408.037336 398.177323 
L 456.93077 398.177323 
L 456.93077 402.76738 
L 505.824205 402.76738 
L 505.824205 407.304849 
" style="fill:none;stroke:#c7c7c7;stroke-linecap:square;stroke-width:1.5;"/>
   </g>
   <g id="line2d_34">
    <path clip-path="url(#p8f836ef84c)" d="M 65.783295 268.432344 
L 114.67673 268.432344 
L 114.67673 238.22499 
L 163.570164 238.22499 
L 163.570164 208.460405 
L 212.463598 208.460405 
L 212.463598 179.656191 
L 261.357033 179.656191 
L 261.357033 152.263686 
L 310.250467 152.263686 
L 310.250467 126.642722 
L 359.143902 126.642722 
L 359.143902 103.048267 
L 408.037336 103.048267 
L 408.037336 81.628967 
L 456.93077 81.628967 
L 456.93077 62.435605 
L 505.824205 62.435605 
L 505.824205 45.436307 
" style="fill:none;stroke:#bcbd22;stroke-linecap:square;stroke-width:1.5;"/>
   </g>
   <g id="line2d_35">
    <path clip-path="url(#p8f836ef84c)" d="M 65.783295 309.928174 
L 114.67673 309.928174 
L 114.67673 305.352768 
L 163.570164 305.352768 
L 163.570164 300.793702 
L 212.463598 300.793702 
L 212.463598 296.254004 
L 261.357033 296.254004 
L 261.357033 291.736644 
L 310.250467 291.736644 
L 310.250467 287.244537 
L 359.143902 287.244537 
L 359.143902 282.780529 
L 408.037336 282.780529 
L 408.037336 278.347393 
L 456.93077 278.347393 
L 456.93077 273.94782 
L 505.824205 273.94782 
L 505.824205 269.584416 
" style="fill:none;stroke:#dbdb8d;stroke-linecap:square;stroke-width:1.5;"/>
   </g>
   <g id="line2d_36">
    <path clip-path="url(#p8f836ef84c)" d="M 65.783295 226.873414 
L 114.67673 226.873414 
L 114.67673 213.97203 
L 163.570164 213.97203 
L 163.570164 201.244641 
L 212.463598 201.244641 
L 212.463598 188.731615 
L 261.357033 188.731615 
L 261.357033 176.470492 
L 310.250467 176.470492 
L 310.250467 164.495581 
L 359.143902 164.495581 
L 359.143902 152.837646 
L 408.037336 152.837646 
L 408.037336 141.523672 
L 456.93077 141.523672 
L 456.93077 130.57673 
L 505.824205 130.57673 
L 505.824205 120.015922 
" style="fill:none;stroke:#17becf;stroke-linecap:square;stroke-width:1.5;"/>
   </g>
   <g id="line2d_37">
    <path clip-path="url(#p8f836ef84c)" d="M 65.783295 300.799842 
L 114.67673 300.799842 
L 114.67673 271.748284 
L 163.570164 271.748284 
L 163.570164 243.020128 
L 212.463598 243.020128 
L 212.463598 215.16806 
L 261.357033 215.16806 
L 261.357033 188.678305 
L 310.250467 188.678305 
L 310.250467 163.939827 
L 359.143902 163.939827 
L 359.143902 141.22748 
L 408.037336 141.22748 
L 408.037336 120.699465 
L 456.93077 120.699465 
L 456.93077 102.406776 
L 505.824205 102.406776 
L 505.824205 86.310712 
" style="fill:none;stroke:#9edae5;stroke-linecap:square;stroke-width:1.5;"/>
   </g>
   <g id="line2d_38">
    <path clip-path="url(#p8f836ef84c)" d="M 65.783295 349.466023 
L 114.67673 349.466023 
L 114.67673 355.735867 
L 163.570164 355.735867 
L 163.570164 361.952286 
L 212.463598 361.952286 
L 212.463598 368.109019 
L 261.357033 368.109019 
L 261.357033 374.200061 
L 310.250467 374.200061 
L 310.250467 380.219677 
L 359.143902 380.219677 
L 359.143902 386.162429 
L 408.037336 386.162429 
L 408.037336 392.023187 
L 456.93077 392.023187 
L 456.93077 397.797145 
L 505.824205 397.797145 
L 505.824205 403.47983 
" style="fill:none;stroke:#1f77b4;stroke-linecap:square;stroke-width:1.5;"/>
   </g>
   <g id="line2d_39">
    <path clip-path="url(#p8f836ef84c)" d="M 65.783295 278.56528 
L 114.67673 278.56528 
L 114.67673 263.362449 
L 163.570164 263.362449 
L 163.570164 248.456036 
L 212.463598 248.456036 
L 212.463598 233.933401 
L 261.357033 233.933401 
L 261.357033 219.872521 
L 310.250467 219.872521 
L 310.250467 206.340575 
L 359.143902 206.340575 
L 359.143902 193.393048 
L 408.037336 193.393048 
L 408.037336 181.073328 
L 456.93077 181.073328 
L 456.93077 169.41278 
L 505.824205 169.41278 
L 505.824205 158.431227 
" style="fill:none;stroke:#aec7e8;stroke-linecap:square;stroke-width:1.5;"/>
   </g>
   <g id="line2d_40">
    <path clip-path="url(#p8f836ef84c)" d="M 65.783295 311.556753 
L 114.67673 311.556753 
L 114.67673 283.824019 
L 163.570164 283.824019 
L 163.570164 256.410456 
L 212.463598 256.410456 
L 212.463598 229.83843 
L 261.357033 229.83843 
L 261.357033 204.567044 
L 310.250467 204.567044 
L 310.250467 180.963396 
L 359.143902 180.963396 
L 359.143902 159.286911 
L 408.037336 159.286911 
L 408.037336 139.687056 
L 456.93077 139.687056 
L 456.93077 122.212225 
L 505.824205 122.212225 
L 505.824205 106.826189 
" style="fill:none;stroke:#ff7f0e;stroke-linecap:square;stroke-width:1.5;"/>
   </g>
   <g id="line2d_41">
    <path clip-path="url(#p8f836ef84c)" d="M 65.783295 343.329583 
L 114.67673 343.329583 
L 114.67673 346.871159 
L 163.570164 346.871159 
L 163.570164 350.403059 
L 212.463598 350.403059 
L 212.463598 353.923959 
L 261.357033 353.923959 
L 261.357033 357.432553 
L 310.250467 357.432553 
L 310.250467 360.927552 
L 359.143902 360.927552 
L 359.143902 364.407689 
L 408.037336 364.407689 
L 408.037336 367.871718 
L 456.93077 367.871718 
L 456.93077 371.318418 
L 505.824205 371.318418 
L 505.824205 374.746593 
" style="fill:none;stroke:#ffbb78;stroke-linecap:square;stroke-width:1.5;"/>
   </g>
   <g id="line2d_42">
    <path clip-path="url(#p8f836ef84c)" d="M 65.783295 366.759516 
L 114.67673 366.759516 
L 114.67673 334.653888 
L 163.570164 334.653888 
L 163.570164 301.832687 
L 212.463598 301.832687 
L 212.463598 269.271045 
L 261.357033 269.271045 
L 261.357033 237.913784 
L 310.250467 237.913784 
L 310.250467 208.569668 
L 359.143902 208.569668 
L 359.143902 181.836918 
L 408.037336 181.836918 
L 408.037336 158.072293 
L 456.93077 158.072293 
L 456.93077 137.401786 
L 505.824205 137.401786 
L 505.824205 119.76071 
" style="fill:none;stroke:#2ca02c;stroke-linecap:square;stroke-width:1.5;"/>
   </g>
   <g id="line2d_43">
    <path clip-path="url(#p8f836ef84c)" d="M 65.783295 256.96609 
L 114.67673 256.96609 
L 114.67673 231.937063 
L 163.570164 231.937063 
L 163.570164 207.434691 
L 212.463598 207.434691 
L 212.463598 183.760864 
L 261.357033 183.760864 
L 261.357033 161.176041 
L 310.250467 161.176041 
L 310.250467 139.889516 
L 359.143902 139.889516 
L 359.143902 120.054462 
L 408.037336 120.054462 
L 408.037336 101.767611 
L 456.93077 101.767611 
L 456.93077 85.07284 
L 505.824205 85.07284 
L 505.824205 69.967602 
" style="fill:none;stroke:#98df8a;stroke-linecap:square;stroke-width:1.5;"/>
   </g>
   <g id="line2d_44">
    <path clip-path="url(#p8f836ef84c)" d="M 65.783295 457.902081 
L 114.67673 457.902081 
L 114.67673 423.115815 
L 163.570164 423.115815 
L 163.570164 382.427032 
L 212.463598 382.427032 
L 212.463598 336.930204 
L 261.357033 336.930204 
L 261.357033 288.549431 
L 310.250467 288.549431 
L 310.250467 239.773765 
L 359.143902 239.773765 
L 359.143902 193.17351 
L 408.037336 193.17351 
L 408.037336 150.882998 
L 456.93077 150.882998 
L 456.93077 114.25739 
L 505.824205 114.25739 
L 505.824205 83.800858 
" style="fill:none;stroke:#d62728;stroke-linecap:square;stroke-width:1.5;"/>
   </g>
   <g id="line2d_45">
    <path clip-path="url(#p8f836ef84c)" d="M 65.783295 291.868917 
L 114.67673 291.868917 
L 114.67673 287.393409 
L 163.570164 287.393409 
L 163.570164 282.931416 
L 212.463598 282.931416 
L 212.463598 278.485406 
L 261.357033 278.485406 
L 261.357033 274.057812 
L 310.250467 274.057812 
L 310.250467 269.651027 
L 359.143902 269.651027 
L 359.143902 265.267397 
L 408.037336 265.267397 
L 408.037336 260.909217 
L 456.93077 260.909217 
L 456.93077 256.578728 
L 505.824205 256.578728 
L 505.824205 252.27811 
" style="fill:none;stroke:#ff9896;stroke-linecap:square;stroke-width:1.5;"/>
   </g>
   <g id="line2d_46">
    <path clip-path="url(#p8f836ef84c)" d="M 65.783295 320.838453 
L 114.67673 320.838453 
L 114.67673 327.815143 
L 163.570164 327.815143 
L 163.570164 334.733599 
L 212.463598 334.733599 
L 212.463598 341.586971 
L 261.357033 341.586971 
L 261.357033 348.368677 
L 310.250467 348.368677 
L 310.250467 355.072428 
L 359.143902 355.072428 
L 359.143902 361.692254 
L 408.037336 361.692254 
L 408.037336 368.222514 
L 456.93077 368.222514 
L 456.93077 374.657915 
L 505.824205 374.657915 
L 505.824205 380.993524 
" style="fill:none;stroke:#9467bd;stroke-linecap:square;stroke-width:1.5;"/>
   </g>
   <g id="line2d_47">
    <path clip-path="url(#p8f836ef84c)" d="M 65.783295 311.198476 
L 114.67673 311.198476 
L 114.67673 282.451781 
L 163.570164 282.451781 
L 163.570164 253.979469 
L 212.463598 253.979469 
L 212.463598 226.350452 
L 261.357033 226.350452 
L 261.357033 200.067336 
L 310.250467 200.067336 
L 310.250467 175.533051 
L 359.143902 175.533051 
L 359.143902 153.032301 
L 408.037336 153.032301 
L 408.037336 132.728451 
L 456.93077 132.728451 
L 456.93077 114.673338 
L 505.824205 114.673338 
L 505.824205 98.825785 
" style="fill:none;stroke:#c5b0d5;stroke-linecap:square;stroke-width:1.5;"/>
   </g>
   <g id="line2d_48">
    <path clip-path="url(#p8f836ef84c)" d="M 65.783295 245.630542 
L 114.67673 245.630542 
L 114.67673 228.204124 
L 163.570164 228.204124 
L 163.570164 211.126165 
L 212.463598 211.126165 
L 212.463598 194.502822 
L 261.357033 194.502822 
L 261.357033 178.428469 
L 310.250467 178.428469 
L 310.250467 162.983902 
L 359.143902 162.983902 
L 359.143902 148.235215 
L 408.037336 148.235215 
L 408.037336 134.233343 
L 456.93077 134.233343 
L 456.93077 121.014224 
L 505.824205 121.014224 
L 505.824205 108.599495 
" style="fill:none;stroke:#8c564b;stroke-linecap:square;stroke-width:1.5;"/>
   </g>
   <g id="line2d_49">
    <path clip-path="url(#p8f836ef84c)" d="M 65.783295 299.374566 
L 114.67673 299.374566 
L 114.67673 291.890487 
L 163.570164 291.890487 
L 163.570164 284.467883 
L 212.463598 284.467883 
L 212.463598 277.119321 
L 261.357033 277.119321 
L 261.357033 269.856855 
L 310.250467 269.856855 
L 310.250467 262.691947 
L 359.143902 262.691947 
L 359.143902 255.635406 
L 408.037336 255.635406 
L 408.037336 248.697327 
L 456.93077 248.697327 
L 456.93077 241.887047 
L 505.824205 241.887047 
L 505.824205 235.213105 
" style="fill:none;stroke:#c49c94;stroke-linecap:square;stroke-width:1.5;"/>
   </g>
   <g id="line2d_50">
    <path clip-path="url(#p8f836ef84c)" d="M 65.783295 501.829556 
L 114.67673 501.829556 
L 114.67673 475.79578 
L 163.570164 475.79578 
L 163.570164 443.652621 
L 212.463598 443.652621 
L 212.463598 405.709294 
L 261.357033 405.709294 
L 261.357033 363.22293 
L 310.250467 363.22293 
L 310.250467 318.372698 
L 359.143902 318.372698 
L 359.143902 273.878858 
L 408.037336 273.878858 
L 408.037336 232.37743 
L 456.93077 232.37743 
L 456.93077 195.83446 
L 505.824205 195.83446 
L 505.824205 165.254482 
" style="fill:none;stroke:#e377c2;stroke-linecap:square;stroke-width:1.5;"/>
   </g>
   <g id="line2d_51">
    <path clip-path="url(#p8f836ef84c)" d="M 65.783295 253.127004 
L 114.67673 253.127004 
L 114.67673 247.357394 
L 163.570164 247.357394 
L 163.570164 241.610022 
L 212.463598 241.610022 
L 212.463598 235.889031 
L 261.357033 235.889031 
L 261.357033 230.198485 
L 310.250467 230.198485 
L 310.250467 224.542364 
L 359.143902 224.542364 
L 359.143902 218.924545 
L 408.037336 218.924545 
L 408.037336 213.348798 
L 456.93077 213.348798 
L 456.93077 207.818773 
L 505.824205 207.818773 
L 505.824205 202.337994 
" style="fill:none;stroke:#f7b6d2;stroke-linecap:square;stroke-width:1.5;"/>
   </g>
   <g id="line2d_52">
    <path clip-path="url(#p8f836ef84c)" d="M 65.783295 411.308044 
L 114.67673 411.308044 
L 114.67673 380.224777 
L 163.570164 380.224777 
L 163.570164 347.457039 
L 212.463598 347.457039 
L 212.463598 314.131396 
L 261.357033 314.131396 
L 261.357033 281.452881 
L 310.250467 281.452881 
L 310.250467 250.535686 
L 359.143902 250.535686 
L 359.143902 222.259834 
L 408.037336 222.259834 
L 408.037336 197.190222 
L 456.93077 197.190222 
L 456.93077 175.567823 
L 505.824205 175.567823 
L 505.824205 157.357746 
" style="fill:none;stroke:#7f7f7f;stroke-linecap:square;stroke-width:1.5;"/>
   </g>
   <g id="line2d_53">
    <path clip-path="url(#p8f836ef84c)" d="M 65.783295 255.186988 
L 114.67673 255.186988 
L 114.67673 236.922755 
L 163.570164 236.922755 
L 163.570164 219.042216 
L 212.463598 219.042216 
L 212.463598 201.672874 
L 261.357033 201.672874 
L 261.357033 184.927073 
L 310.250467 184.927073 
L 310.250467 168.899579 
L 359.143902 168.899579 
L 359.143902 153.666153 
L 408.037336 153.666153 
L 408.037336 139.283089 
L 456.93077 139.283089 
L 456.93077 125.787644 
L 505.824205 125.787644 
L 505.824205 113.199196 
" style="fill:none;stroke:#c7c7c7;stroke-linecap:square;stroke-width:1.5;"/>
   </g>
   <g id="line2d_54">
    <path clip-path="url(#p8f836ef84c)" d="M 65.783295 241.778051 
L 114.67673 241.778051 
L 114.67673 232.264287 
L 163.570164 232.264287 
L 163.570164 222.835932 
L 212.463598 222.835932 
L 212.463598 213.510738 
L 261.357033 213.510738 
L 261.357033 204.305658 
L 310.250467 204.305658 
L 310.250467 195.236727 
L 359.143902 195.236727 
L 359.143902 186.318968 
L 408.037336 186.318968 
L 408.037336 177.566301 
L 456.93077 177.566301 
L 456.93077 168.991479 
L 505.824205 168.991479 
L 505.824205 160.606033 
" style="fill:none;stroke:#bcbd22;stroke-linecap:square;stroke-width:1.5;"/>
   </g>
   <g id="line2d_55">
    <path clip-path="url(#p8f836ef84c)" d="M 65.783295 233.111376 
L 114.67673 233.111376 
L 114.67673 215.618643 
L 163.570164 215.618643 
L 163.570164 198.466714 
L 212.463598 198.466714 
L 212.463598 181.755937 
L 261.357033 181.755937 
L 261.357033 165.57589 
L 310.250467 165.57589 
L 310.250467 150.003765 
L 359.143902 150.003765 
L 359.143902 135.103331 
L 408.037336 135.103331 
L 408.037336 120.924478 
L 456.93077 120.924478 
L 456.93077 107.503292 
L 505.824205 107.503292 
L 505.824205 94.862613 
" style="fill:none;stroke:#dbdb8d;stroke-linecap:square;stroke-width:1.5;"/>
   </g>
   <g id="line2d_56">
    <path clip-path="url(#p8f836ef84c)" d="M 65.783295 398.755282 
L 114.67673 398.755282 
L 114.67673 365.357902 
L 163.570164 365.357902 
L 163.570164 330.15505 
L 212.463598 330.15505 
L 212.463598 294.356589 
L 261.357033 294.356589 
L 261.357033 259.256108 
L 310.250467 259.256108 
L 310.250467 226.049284 
L 359.143902 226.049284 
L 359.143902 195.680236 
L 408.037336 195.680236 
L 408.037336 168.754817 
L 456.93077 168.754817 
L 456.93077 145.531299 
L 505.824205 145.531299 
L 505.824205 125.971989 
" style="fill:none;stroke:#17becf;stroke-linecap:square;stroke-width:1.5;"/>
   </g>
   <g id="line2d_57">
    <path clip-path="url(#p8f836ef84c)" d="M 65.783295 507.799943 
L 114.67673 507.799943 
L 114.67673 481.71188 
L 163.570164 481.71188 
L 163.570164 448.495201 
L 212.463598 448.495201 
L 212.463598 408.004062 
L 261.357033 408.004062 
L 261.357033 361.18536 
L 310.250467 361.18536 
L 310.250467 310.245718 
L 359.143902 310.245718 
L 359.143902 258.363447 
L 408.037336 258.363447 
L 408.037336 208.955648 
L 456.93077 208.955648 
L 456.93077 164.825658 
L 505.824205 164.825658 
L 505.824205 127.610149 
" style="fill:none;stroke:#9edae5;stroke-linecap:square;stroke-width:1.5;"/>
   </g>
   <g id="patch_3">
    <path d="M 43.78125 530.918125 
L 43.78125 22.318125 
" style="fill:none;stroke:#000000;stroke-linecap:square;stroke-linejoin:miter;stroke-width:0.8;"/>
   </g>
   <g id="patch_4">
    <path d="M 527.82625 530.918125 
L 527.82625 22.318125 
" style="fill:none;stroke:#000000;stroke-linecap:square;stroke-linejoin:miter;stroke-width:0.8;"/>
   </g>
   <g id="patch_5">
    <path d="M 43.78125 530.918125 
L 527.82625 530.918125 
" style="fill:none;stroke:#000000;stroke-linecap:square;stroke-linejoin:miter;stroke-width:0.8;"/>
   </g>
   <g id="patch_6">
    <path d="M 43.78125 22.318125 
L 527.82625 22.318125 
" style="fill:none;stroke:#000000;stroke-linecap:square;stroke-linejoin:miter;stroke-width:0.8;"/>
   </g>
   <g id="text_20">
    <!-- Learning curve samples of algorithms on one dataset from the Artificial Meta-dataset -->
    <defs>
     <path d="M 9.8125 72.90625 
L 19.671875 72.90625 
L 19.671875 8.296875 
L 55.171875 8.296875 
L 55.171875 0 
L 9.8125 0 
z
" id="DejaVuSans-76"/>
     <path d="M 2.984375 54.6875 
L 12.5 54.6875 
L 29.59375 8.796875 
L 46.6875 54.6875 
L 56.203125 54.6875 
L 35.6875 0 
L 23.484375 0 
z
" id="DejaVuSans-118"/>
     <path d="M 9.421875 75.984375 
L 18.40625 75.984375 
L 18.40625 0 
L 9.421875 0 
z
" id="DejaVuSans-108"/>
     <path d="M 54.890625 33.015625 
L 54.890625 0 
L 45.90625 0 
L 45.90625 32.71875 
Q 45.90625 40.484375 42.875 44.328125 
Q 39.84375 48.1875 33.796875 48.1875 
Q 26.515625 48.1875 22.3125 43.546875 
Q 18.109375 38.921875 18.109375 30.90625 
L 18.109375 0 
L 9.078125 0 
L 9.078125 75.984375 
L 18.109375 75.984375 
L 18.109375 46.1875 
Q 21.34375 51.125 25.703125 53.5625 
Q 30.078125 56 35.796875 56 
Q 45.21875 56 50.046875 50.171875 
Q 54.890625 44.34375 54.890625 33.015625 
z
" id="DejaVuSans-104"/>
     <path d="M 45.40625 46.390625 
L 45.40625 75.984375 
L 54.390625 75.984375 
L 54.390625 0 
L 45.40625 0 
L 45.40625 8.203125 
Q 42.578125 3.328125 38.25 0.953125 
Q 33.9375 -1.421875 27.875 -1.421875 
Q 17.96875 -1.421875 11.734375 6.484375 
Q 5.515625 14.40625 5.515625 27.296875 
Q 5.515625 40.1875 11.734375 48.09375 
Q 17.96875 56 27.875 56 
Q 33.9375 56 38.25 53.625 
Q 42.578125 51.265625 45.40625 46.390625 
z
M 14.796875 27.296875 
Q 14.796875 17.390625 18.875 11.75 
Q 22.953125 6.109375 30.078125 6.109375 
Q 37.203125 6.109375 41.296875 11.75 
Q 45.40625 17.390625 45.40625 27.296875 
Q 45.40625 37.203125 41.296875 42.84375 
Q 37.203125 48.484375 30.078125 48.484375 
Q 22.953125 48.484375 18.875 42.84375 
Q 14.796875 37.203125 14.796875 27.296875 
z
" id="DejaVuSans-100"/>
     <path d="M 34.1875 63.1875 
L 20.796875 26.90625 
L 47.609375 26.90625 
z
M 28.609375 72.90625 
L 39.796875 72.90625 
L 67.578125 0 
L 57.328125 0 
L 50.6875 18.703125 
L 17.828125 18.703125 
L 11.1875 0 
L 0.78125 0 
z
" id="DejaVuSans-65"/>
     <path d="M 9.8125 72.90625 
L 24.515625 72.90625 
L 43.109375 23.296875 
L 61.8125 72.90625 
L 76.515625 72.90625 
L 76.515625 0 
L 66.890625 0 
L 66.890625 64.015625 
L 48.09375 14.015625 
L 38.1875 14.015625 
L 19.390625 64.015625 
L 19.390625 0 
L 9.8125 0 
z
" id="DejaVuSans-77"/>
     <path d="M 4.890625 31.390625 
L 31.203125 31.390625 
L 31.203125 23.390625 
L 4.890625 23.390625 
z
" id="DejaVuSans-45"/>
    </defs>
    <g transform="translate(29.605625 16.318125)scale(0.12 -0.12)">
     <use xlink:href="#DejaVuSans-76"/>
     <use x="53.962891" xlink:href="#DejaVuSans-101"/>
     <use x="115.486328" xlink:href="#DejaVuSans-97"/>
     <use x="176.765625" xlink:href="#DejaVuSans-114"/>
     <use x="216.128906" xlink:href="#DejaVuSans-110"/>
     <use x="279.507812" xlink:href="#DejaVuSans-105"/>
     <use x="307.291016" xlink:href="#DejaVuSans-110"/>
     <use x="370.669922" xlink:href="#DejaVuSans-103"/>
     <use x="434.146484" xlink:href="#DejaVuSans-32"/>
     <use x="465.933594" xlink:href="#DejaVuSans-99"/>
     <use x="520.914062" xlink:href="#DejaVuSans-117"/>
     <use x="584.292969" xlink:href="#DejaVuSans-114"/>
     <use x="625.40625" xlink:href="#DejaVuSans-118"/>
     <use x="684.585938" xlink:href="#DejaVuSans-101"/>
     <use x="746.109375" xlink:href="#DejaVuSans-32"/>
     <use x="777.896484" xlink:href="#DejaVuSans-115"/>
     <use x="829.996094" xlink:href="#DejaVuSans-97"/>
     <use x="891.275391" xlink:href="#DejaVuSans-109"/>
     <use x="988.6875" xlink:href="#DejaVuSans-112"/>
     <use x="1052.164062" xlink:href="#DejaVuSans-108"/>
     <use x="1079.947266" xlink:href="#DejaVuSans-101"/>
     <use x="1141.470703" xlink:href="#DejaVuSans-115"/>
     <use x="1193.570312" xlink:href="#DejaVuSans-32"/>
     <use x="1225.357422" xlink:href="#DejaVuSans-111"/>
     <use x="1286.539062" xlink:href="#DejaVuSans-102"/>
     <use x="1321.744141" xlink:href="#DejaVuSans-32"/>
     <use x="1353.53125" xlink:href="#DejaVuSans-97"/>
     <use x="1414.810547" xlink:href="#DejaVuSans-108"/>
     <use x="1442.59375" xlink:href="#DejaVuSans-103"/>
     <use x="1506.070312" xlink:href="#DejaVuSans-111"/>
     <use x="1567.251953" xlink:href="#DejaVuSans-114"/>
     <use x="1608.365234" xlink:href="#DejaVuSans-105"/>
     <use x="1636.148438" xlink:href="#DejaVuSans-116"/>
     <use x="1675.357422" xlink:href="#DejaVuSans-104"/>
     <use x="1738.736328" xlink:href="#DejaVuSans-109"/>
     <use x="1836.148438" xlink:href="#DejaVuSans-115"/>
     <use x="1888.248047" xlink:href="#DejaVuSans-32"/>
     <use x="1920.035156" xlink:href="#DejaVuSans-111"/>
     <use x="1981.216797" xlink:href="#DejaVuSans-110"/>
     <use x="2044.595703" xlink:href="#DejaVuSans-32"/>
     <use x="2076.382812" xlink:href="#DejaVuSans-111"/>
     <use x="2137.564453" xlink:href="#DejaVuSans-110"/>
     <use x="2200.943359" xlink:href="#DejaVuSans-101"/>
     <use x="2262.466797" xlink:href="#DejaVuSans-32"/>
     <use x="2294.253906" xlink:href="#DejaVuSans-100"/>
     <use x="2357.730469" xlink:href="#DejaVuSans-97"/>
     <use x="2419.009766" xlink:href="#DejaVuSans-116"/>
     <use x="2458.21875" xlink:href="#DejaVuSans-97"/>
     <use x="2519.498047" xlink:href="#DejaVuSans-115"/>
     <use x="2571.597656" xlink:href="#DejaVuSans-101"/>
     <use x="2633.121094" xlink:href="#DejaVuSans-116"/>
     <use x="2672.330078" xlink:href="#DejaVuSans-32"/>
     <use x="2704.117188" xlink:href="#DejaVuSans-102"/>
     <use x="2739.322266" xlink:href="#DejaVuSans-114"/>
     <use x="2778.185547" xlink:href="#DejaVuSans-111"/>
     <use x="2839.367188" xlink:href="#DejaVuSans-109"/>
     <use x="2936.779297" xlink:href="#DejaVuSans-32"/>
     <use x="2968.566406" xlink:href="#DejaVuSans-116"/>
     <use x="3007.775391" xlink:href="#DejaVuSans-104"/>
     <use x="3071.154297" xlink:href="#DejaVuSans-101"/>
     <use x="3132.677734" xlink:href="#DejaVuSans-32"/>
     <use x="3164.464844" xlink:href="#DejaVuSans-65"/>
     <use x="3232.873047" xlink:href="#DejaVuSans-114"/>
     <use x="3273.986328" xlink:href="#DejaVuSans-116"/>
     <use x="3313.195312" xlink:href="#DejaVuSans-105"/>
     <use x="3340.978516" xlink:href="#DejaVuSans-102"/>
     <use x="3376.183594" xlink:href="#DejaVuSans-105"/>
     <use x="3403.966797" xlink:href="#DejaVuSans-99"/>
     <use x="3458.947266" xlink:href="#DejaVuSans-105"/>
     <use x="3486.730469" xlink:href="#DejaVuSans-97"/>
     <use x="3548.009766" xlink:href="#DejaVuSans-108"/>
     <use x="3575.792969" xlink:href="#DejaVuSans-32"/>
     <use x="3607.580078" xlink:href="#DejaVuSans-77"/>
     <use x="3693.859375" xlink:href="#DejaVuSans-101"/>
     <use x="3755.382812" xlink:href="#DejaVuSans-116"/>
     <use x="3794.591797" xlink:href="#DejaVuSans-97"/>
     <use x="3855.871094" xlink:href="#DejaVuSans-45"/>
     <use x="3891.955078" xlink:href="#DejaVuSans-100"/>
     <use x="3955.431641" xlink:href="#DejaVuSans-97"/>
     <use x="4016.710938" xlink:href="#DejaVuSans-116"/>
     <use x="4055.919922" xlink:href="#DejaVuSans-97"/>
     <use x="4117.199219" xlink:href="#DejaVuSans-115"/>
     <use x="4169.298828" xlink:href="#DejaVuSans-101"/>
     <use x="4230.822266" xlink:href="#DejaVuSans-116"/>
    </g>
   </g>
  </g>
 </g>
 <defs>
  <clipPath id="p8f836ef84c">
   <rect height="508.6" width="484.045" x="43.78125" y="22.318125"/>
  </clipPath>
 </defs>
</svg>
